<?xml version="1.0" standalone="no"?>
<!DOCTYPE svg PUBLIC "-//W3C//DTD SVG 20010904//EN"
 "http://www.w3.org/TR/2001/REC-SVG-20010904/DTD/svg10.dtd">
<svg version="1.0" xmlns="http://www.w3.org/2000/svg"
 width="350.000000pt" height="350.000000pt" viewBox="0 0 350.000000 350.000000"
 preserveAspectRatio="xMidYMid meet">
<metadata>
Created by potrace 1.14, written by Peter Selinger 2001-2017
</metadata>
<g transform="translate(0.000000,350.000000) scale(0.100000,-0.100000)"
fill="#000000" stroke="none">
<path d="M0 1750 l0 -1750 1750 0 1750 0 0 1750 0 1750 -1750 0 -1750 0 0
-1750z m3269 609 c36 -6 79 -16 98 -24 28 -12 32 -17 25 -37 -5 -13 -22 -63
-38 -111 -25 -78 -31 -88 -49 -83 -11 3 -47 12 -80 21 -73 19 -237 21 -295 4
-79 -24 -103 -93 -52 -149 17 -19 70 -49 142 -80 171 -75 215 -110 256 -206
26 -58 23 -183 -5 -256 -27 -70 -93 -145 -158 -180 -100 -55 -192 -73 -368
-73 -134 0 -177 4 -262 24 -60 14 -103 29 -103 36 0 12 60 217 66 224 2 2 19
-4 39 -13 98 -47 322 -59 405 -23 74 32 106 98 76 155 -19 37 -71 69 -181 112
-183 72 -243 137 -253 272 -13 179 93 319 283 374 111 32 299 37 454 13z
m-2526 -76 c13 -43 66 -221 117 -396 51 -175 97 -314 100 -310 4 5 40 172 80
373 40 201 77 375 81 388 8 21 12 22 149 22 111 0 140 -3 140 -14 0 -13 -207
-1004 -235 -1123 -5 -23 -6 -23 -198 -23 l-193 0 -91 303 c-51 166 -104 344
-119 394 -15 51 -29 91 -31 89 -2 -1 -37 -171 -78 -377 -42 -206 -78 -382 -81
-391 -5 -16 -21 -18 -150 -18 -79 0 -144 3 -144 6 0 3 4 24 10 47 5 23 60 276
120 562 61 286 112 526 115 533 3 9 51 12 194 12 l190 0 24 -77z m1089 72 c3
-3 -12 -87 -33 -188 -21 -100 -41 -199 -45 -219 l-7 -38 181 0 180 0 10 48 c6
26 24 117 42 202 17 85 35 165 40 178 9 21 14 22 154 22 80 0 147 -4 150 -9 3
-4 -26 -161 -65 -347 -38 -187 -92 -442 -118 -569 l-48 -230 -157 -3 -157 -3
6 23 c15 64 95 452 95 460 0 4 -81 8 -179 8 -162 0 -180 -2 -185 -17 -5 -19
-96 -461 -96 -468 0 -3 -70 -5 -155 -5 -85 0 -155 3 -155 8 0 4 23 117 51 252
132 636 161 779 171 830 6 30 16 58 22 62 12 9 290 11 298 3z"/>
</g>
</svg>
